<?xml version="1.0" encoding="UTF-8" standalone="no"?>
<!-- Generator: Adobe Illustrator 21.0.2, SVG Export Plug-In . SVG Version: 6.00 Build 0)  -->

<svg
   xmlns:dc="http://purl.org/dc/elements/1.1/"
   xmlns:cc="http://creativecommons.org/ns#"
   xmlns:rdf="http://www.w3.org/1999/02/22-rdf-syntax-ns#"
   xmlns:svg="http://www.w3.org/2000/svg"
   xmlns="http://www.w3.org/2000/svg"
   xmlns:sodipodi="http://sodipodi.sourceforge.net/DTD/sodipodi-0.dtd"
   xmlns:inkscape="http://www.inkscape.org/namespaces/inkscape"
   version="1.1"
   id="Layer_1"
   x="0px"
   y="0px"
   viewBox="0 0 1024 768"
   style="enable-background:new 0 0 1024 768;"
   xml:space="preserve"
   inkscape:version="0.91 r13725"
   sodipodi:docname="logo2.svg"><metadata
     id="metadata29"><rdf:RDF><cc:Work
         rdf:about=""><dc:format>image/svg+xml</dc:format><dc:type
           rdf:resource="http://purl.org/dc/dcmitype/StillImage" /><dc:title></dc:title></cc:Work></rdf:RDF></metadata><defs
     id="defs27" /><sodipodi:namedview
     pagecolor="#ffffff"
     bordercolor="#666666"
     borderopacity="1"
     objecttolerance="10"
     gridtolerance="10"
     guidetolerance="10"
     inkscape:pageopacity="0"
     inkscape:pageshadow="2"
     inkscape:window-width="733"
     inkscape:window-height="480"
     id="namedview25"
     showgrid="false"
     inkscape:zoom="0.26757812"
     inkscape:cx="512"
     inkscape:cy="384"
     inkscape:window-x="0"
     inkscape:window-y="0"
     inkscape:window-maximized="0"
     inkscape:current-layer="Layer_1" /><style
     type="text/css"
     id="style3">
	.st0{fill:#020200;}
	.st1{fill:#D53326;}
</style><path
     class="st0"
     d="M741.5,705.6c-38.8-0.5-73.8-10.9-101.6-39.7c-7-7.2-12.6-15.5-17.9-24c-2.6-4.1-1.6-6,2.4-8.2  c14.7-8.3,29.4-16.7,43.9-25.5c4.5-2.7,6.6-2.4,9.5,2.1c10.2,15.9,23.6,28.1,42.5,33c13.9,3.6,27.9,3.9,41.6-0.7  c12.8-4.3,22.3-12.2,24.1-26.4c1.8-14-4.5-24.5-16.1-31.9c-14.7-9.4-31-15.6-47-22.5c-18.4-7.9-36.5-16.5-51.7-30  c-29.8-26.3-37.5-59.8-28.1-96.8c9.3-36.4,35.9-55.8,71.7-62.4c28-5.1,55.6-3,81.2,11.3c15.4,8.7,26.4,21.6,35.8,36.3  c2.2,3.5,1,4.8-1.8,6.7c-14.7,9.3-29.4,18.6-43.9,28.3c-4,2.6-5.5,1.4-7.6-2.1c-8.2-13.9-19.7-22.9-36.6-24  c-16.7-1-30,6.3-34.4,19.7c-4.7,14.3,0.7,28.4,14.9,37.3c16.6,10.4,35.4,16.5,53,24.8c17.5,8.2,34.7,17,49.1,30.3  c28.3,26.2,34.3,59.2,26.1,95c-8,34.8-32.7,54.1-65.9,63.8C770.6,704.1,756.1,705.6,741.5,705.6z"
     id="path5" /><path
     class="st1"
     d="M515.5,377.2c-8.2-0.7-15.1,3.4-22.4,6.2c-13.6,5.2-23.2,12.3-26.8,28.2c-2.8,12.3-7,24.2-5.5,37  c0.4,3.6-0.6,6.4-2.4,9.4c-7.5,12-13.3,24.6-17.6,38.2c-3.8,12-2,22.4,5.1,32.4c1.9,2.7,4.2,5.2,4.9,8.6c-3.8-0.8-7.1,1.5-10.7,1.8  c-3.6-6.8-8.2-12.8-13.6-18.3c-3.2-3.2-3.8-6.5-1.8-10.9c8.8-19.4,14.4-39.8,18.6-60.6c1.9-9.6,5.3-18.8,4.3-28.8  c-0.2-2.6-0.3-5.3-0.8-7.8c-2.2-11.4-3.9-12.3-14.2-7.9c-8,3.4-16.3,2.8-24.6,1.2c-13.4-2.6-26-7.8-38.9-12  c-5.1-1.6-6.1-0.9-4.8,4.6c3,13.1,0.2,26.1-2,39c-1.3,7.7-2.8,15.5-5,23c-1.8,6.4-1,12.1,1.7,17.9c4.5,9.5,9.7,18.6,16.4,26.7  c2.9,3.5,5.6,7.1,6.9,11.5c2.3,8,8.3,13.7,12.2,20.8c-3.7-1.2-7.1,1-10.6,1.4c-2.9-5.8-6.8-10.9-12.3-14.6c-2-1.4-3.7-3.1-4.4-5.5  c-4.7-16.2-14.2-29.6-24.3-42.6c-5-6.5-6.1-12-0.8-18.5c2.4-3,3.8-6.6,4.9-10.3c2.3-8.3,0.9-12.9-6.2-18  c-7.9-5.7-16.3-10.9-21.1-19.9c-1.4-2.6-3.2-2.1-5.3-0.7c-12.8,8.6-26,16.8-38.1,26.6c-21.1,17.2-31.1,40.8-39.4,65.8  c-3.6,10.8-3.1,19.7,4,28.5c1.9,2.3,4.2,4.6,4.7,7.9c-4-1.4-7.4,1.2-11.2,1.4c-3.2-5.3-5.9-10.9-12-13.8c-4.6-2.2-2.1-6-1.1-8.7  c4.4-11.4,8.6-22.7,10.6-34.8c1-6.6,2.3-13.2,2.8-19.8c0.6-7.3,4.1-12.1,9.8-16.5c12.1-9.5,22.3-20.8,28.1-35.4  c5-12.5,5.9-25-0.1-37.4c-5.7-11.9-6.5-23.8-0.9-35.9c1.7-3.7,1.9-6.7-1.6-9.4c-2.2-1.7-3-4.3-2.9-7c0-1.4-0.3-3,1.4-3.7  c1.3-0.5,2.3,0.5,3.1,1.3c3.7,3.9,6.8,2.8,10.3-0.6c18.8-18.3,40.1-21,63.7-10.1c6.2,2.9,13.1,2.8,19.5-0.2c10-4.7,20-5.3,30.4-1.2  c7.7,3,11,0.7,12.1-7.6c0.8-6.2,0.7-12.4-3.4-17.8c-16.1-21.5-21.5-45.9-19.6-72.2c0.4-5,0.9-9.4-5.8-10.6c-2.5-0.4-4.4-2.9-5.6-5.3  c-1.3-2.9-4.6-6.3-1.7-9.1c2.9-2.9,4.5,1.9,6.8,3c3.5,1.7,6.9,3.6,10.7,0.9c2,0.3,3.5-0.7,5-1.9c6.8-5.5,14.4-8.9,23.4-7.3  c9.4,8.6,21.4,9.3,33.1,11.3c-0.7,5.1,2.6,9.4,2.5,14.4c-3.1,0.1-6.2,0.1-9.2,0.3c-1.1,0.1-2.6,0.4-2.5,2c0.1,1.6,1.5,1.6,2.7,1.7  c2.9,0.1,5.7,0,8.6,0.2c1.7,0.1,3.4,0.7,3.4,2.9c0,2.3-1.5,3.5-3.6,3.6c-1.2,0.1-2.4-0.2-3.5-0.4c-9.4-1.6-15.7,3.9-22,9.5  c-1.7,1.5-1.3,3.4-1,5.3c1.4,10.1,6.1,17,16.7,19.8C461,253,476.6,262.3,484,281c5.2,13.1,4.2,27.2,3.7,41  c-0.3,8.6-1.2,17.2-4.1,25.3c-1.3,3.6,0.2,4.9,3.4,6.3c18.9,7.9,38.3,13.3,59,11.9c6.7-0.5,7.9,5.1,11,8.6  c5.5,12.3,15.8,20.2,25.7,28.4c14.7,8.2,16.8,21.8,15.8,36.8c-3-1.4-6.1-2.8-9.1-4.1c-1.1-5.5,0.9-12.3-6.4-15.3  c-9-11.8-20.4-21.3-30.9-31.6C541.5,377.8,529.3,375.5,515.5,377.2z M413.8,193.2c0.5,1.8,1.9,2.3,3.6,2.2c1.5-0.1,2.9-0.8,2.7-2.5  c-0.1-2-1.8-2.5-3.6-2.4C415.1,190.5,414.1,191.4,413.8,193.2z"
     id="path7" /><path
     class="st0"
     d="M589.4,435.1c3,1.4,6.1,2.8,9.1,4.1c1.9,5.7,3.7,11.3,2.7,17.8c-5.5-2.4-9.4-6.7-13.9-10  c-2.8-2-4.3-1.8-4.4,1.9c0,1.9,0,3.8,0,5.7c0,48.4,0,96.8,0,145.2c0,12.7-0.7,25.3-3.8,37.6c-8.9,35.3-30.9,57.4-66.7,64.6  c-38.1,7.6-74.1,3.6-105-22.7c-10.1-8.6-17.6-19.3-23.9-30.9c-1.7-3.2-1.5-4.9,1.7-6.9c15.8-9.4,31.5-18.9,47.1-28.5  c2.9-1.8,4.4-1.5,6.1,1.5c2.7,4.8,5.6,9.4,8.9,13.8c11.7,15.6,29.1,21,47.7,15c10-3.3,15.5-10.6,18.3-20.3c2.2-7.9,2.3-16,2.3-24.1  c0-73.9,0-147.8,0-221.7c13.9-1.8,26.1,0.5,36.7,11c10.5,10.4,21.8,19.9,30.9,31.6c0,7.3,0,14.5,0,21.8c0.5,0,1,0.1,1.5,0.1  C586.1,439.6,587.8,437.3,589.4,435.1z"
     id="path9" /><path
     class="st0"
     d="M582.8,402.5c-9.9-8.3-20.3-16.1-25.7-28.4c6.8,0,13.7,0.1,20.5-0.1c3.9-0.1,5.5,1.2,5.4,5.2  C582.7,386.9,582.8,394.7,582.8,402.5z"
     id="path11" /><path
     class="st0"
     d="M234.3,539c3.8-0.2,7.2-2.8,11.2-1.4c3,3.8,7.1,6.8,9.5,12.5c-4.6,0-8.5,0-12.4,0C232.7,550,232,549,234.3,539z  "
     id="path13" /><path
     class="st0"
     d="M440,538.9c3.6-0.2,6.9-2.6,10.7-1.8c3.2,3.9,7.6,7,9.8,12.8c-6.3,0-12.4,0.9-17.9-0.2  C436.1,548.4,439.5,542.9,440,538.9z"
     id="path15" /><path
     class="st0"
     d="M383.8,538.8c3.6-0.3,6.9-2.5,10.6-1.4c3.1,3.8,7.3,6.7,9.4,12.6c-4.4,0-8.3,0-12.2,0  C381.9,550,380.8,548.5,383.8,538.8z"
     id="path17" /><path
     class="st0"
     d="M453,203.4c0.1-5-3.2-9.3-2.5-14.4c3.3,0.1,7.1-0.5,8,3.8C459.5,197.5,458.4,201.7,453,203.4z"
     id="path19" /><path
     class="st0"
     d="M447.5,128.8c4.9-8.6,7.5-17.7,4.7-27.7c-1.4,11.3-5.6,21.1-13.9,29c-5.5,5.3-9.1,4.4-11.1-2.8  c-2.1-7.9-2.4-16-2.3-24.1c0-9.3-0.3-18.6-3.7-27.5c-1.3-3.5-2.5-7.3-7.1-9.5c1.3,6.4,2.6,11.9,3.5,17.5c0.6,3.8,3.2,9.1-1.1,11  c-3.1,1.4-5-4.1-7.3-6.6c-6.8-7.5-14.8-12-25.1-11.6c1.7,1.8,3.6,3,5.6,4.2c22.4,13.7,35.7,44.2,30.6,70  c-2.2,10.9-8.2,18.6-18.7,22.6c-1.7,0.6-3.6,2.1-5.3,0.4c-1.4-1.4,0-3.1,0.3-4.7c1.1-5.8,2.4-11.5-1.2-17.9  c-2.7,4.9-2.3,9.9-4.9,13.9c-3.5,5.4-7.7,6.7-13.3,3.4c-7.1-4.1-8.8-8.8-6.5-16.8c1.2-4.1,2.6-8.2,3.1-12.4  c0.6-4.7,1.1-9.6-2.5-14.7c-1.4,4.5-2.4,8.2-3.6,11.7c-1.3,3.6-2.5,7.2-4.3,10.5c-4.7,8.5-9.9,8.6-15.5,0.6  c-5.3-7.5-3.7-15.4-1.4-23.3c3.2-10.9,7.6-21.6,6.7-33.4c3.7-2.3,1.6-4.6,0.1-8c-1.9,3.6-3.5,6.3-3.1,9.6c-0.4,1.8-0.9,3.5-1.4,5.3  c-1.8,2.8-2.9,5.9-3,9.3c-1.1,1.9-2.2,3.8-3.3,5.7c-0.7,0.2-1.3,0.4-1.8,0.5c0.5-0.1,1.1-0.3,1.8-0.5c-6.3-1.1-3.5-7.3-5.8-10.6  c0-5.6,0-11.2,0-16.8c1.6-3.5,1.3-7,0.6-10.6c0.2-2.1,0.5-4.1,0.7-6.2c1.4-2,1.7-4,0.4-6.3c-2.6,1.5-3.7,3.4-3.4,6  c-0.6,2.1-1.3,4.3-1.9,6.4c-0.2,0-0.3,0.1-0.5,0.1c0.1,0.3,0.2,0.6,0.3,0.8c-0.4,1.6-0.7,3.3-1.1,4.9c-1.1,0.5-1.2,1.2-0.4,2  c-0.3,2.8-0.7,5.6-1,8.5c-2,9.1-1.9,18.2,0,27.4c0.4,2.8,0.7,5.6,1.1,8.3c0,5.3,1.3,10.2,4.3,14.6c5.7,12.8,16.2,20.8,27.7,27.9  c8.9,5.5,18.4,10,25.7,17.9c2,0.3,3.5-0.7,5-1.9c6.8-5.5,14.4-8.9,23.4-7.3c4-6.8,10.6-9.1,17.6-11.1c5.6-1.6,9.7-4.7,10.4-12.5  c-2.1,1.7-3.2,2.6-4.3,3.4c-4,2.9-8.8,5.8-12.8,1.8c-3.9-3.9,1.1-7.3,3.3-10.3C436.8,142.2,443.2,136.3,447.5,128.8z"
     id="path21" /><path
     class="st0"
     d="M413.8,193.2c0.2-1.8,1.3-2.7,2.8-2.7c1.8-0.1,3.4,0.4,3.6,2.4c0.1,1.7-1.3,2.4-2.7,2.5  C415.7,195.5,414.3,195,413.8,193.2z"
     id="path23" /></svg>